<?xml version="1.0" encoding="UTF-8"?>
<!DOCTYPE svg PUBLIC "-//W3C//DTD SVG 1.1//EN" "http://www.w3.org/Graphics/SVG/1.1/DTD/svg11.dtd">
<!-- Creator: CorelDRAW X8 -->
<svg xmlns="http://www.w3.org/2000/svg" xml:space="preserve" width="86px" height="78px" version="1.1" style="shape-rendering:geometricPrecision; text-rendering:geometricPrecision; image-rendering:optimizeQuality; fill-rule:evenodd; clip-rule:evenodd"
viewBox="0 0 811 730"
 xmlns:xlink="http://www.w3.org/1999/xlink">
 <defs>
  <style type="text/css">
   <![CDATA[
    .fil1 {fill:#030303}
    .fil2 {fill:#1C1C1C}
    .fil0 {fill:#FDFEFE}
   ]]>
  </style>
 </defs>
 <g id="Слой_x0020_1">
  <metadata id="CorelCorpID_0Corel-Layer"/>
  <path class="fil0" d="M390 604l31 0 0 62 -31 1 0 -63zm95 -11l18 -7c7,14 16,25 21,39l-18 7c0,0 -1,-2 -2,-2 0,1 -1,-1 -1,-2 -1,0 -15,-14 -18,-35zm-179 39l-18 -9c6,-12 15,-30 22,-37l17 10c-6,14 -11,22 -21,36zm253 -113l31 15 0 24c-14,-5 -25,-13 -39,-20l8 -19zm-346 22c7,-7 26,-19 38,-23l9 18c-13,7 -25,15 -38,22l-9 -17zm152 -96c4,-5 2,-2 5,-6 9,11 29,19 40,30 -16,9 -32,3 -53,0l8 -24zm60 -3c5,-10 1,-3 4,-7l24 12 0 21 -17 9 -19 -12c-9,-7 -2,-1 -6,-5 12,-9 8,-5 14,-18zm144 -17l63 0 0 31 -62 0 -1 -31zm-391 0l63 0 -1 31 -61 0 -1 -31zm213 10c12,-11 15,-10 28,-4 1,19 -3,24 -23,22l-5 -18zm95 -62c16,-7 11,-3 27,3l0 23c-19,9 -36,27 -53,36 -13,7 -19,1 -32,-6l-27 -16 85 -40zm-101 72c-17,-13 -36,-25 -55,-36 -10,-7 -18,-12 -27,-19 -11,-7 -17,-8 -21,-22 23,0 90,41 116,50l-13 27zm203 -123l9 19c-11,9 -23,16 -35,20 -8,-8 -7,-7 -10,-18l36 -21zm-367 1c12,4 31,14 39,22l-9 17c-11,-4 -29,-14 -39,-20l9 -19zm169 -110l31 1 0 61 -31 1 0 -63zm-83 34l20 38 -17 9c-9,-12 -17,-24 -22,-38l19 -9zm178 38c2,-10 15,-31 21,-37l18 9 -22 38 -17 -10zm3 -191c-17,-31 -27,-28 -45,-45 -40,0 -71,-18 -110,48l-242 418c-15,28 -53,76 -45,114 13,53 54,54 113,54l491 0c61,0 94,-10 111,-56 18,-47 -17,-88 -34,-118l-210 -364c-9,-16 -22,-35 -29,-51z"/>
  <path class="fil1" d="M530 82c-15,6 10,1 -16,9 -8,3 -18,4 -26,3 7,16 20,35 29,51l210 364c17,30 52,71 34,118 -17,46 -50,56 -111,56l-491 0c-59,0 -100,-1 -113,-54 -8,-38 30,-86 45,-114l242 -418c39,-66 70,-48 110,-48l0 -43c-52,-19 -106,12 -129,38 -16,19 -196,334 -202,345 -21,38 -43,76 -66,115 -26,43 -56,81 -43,136 29,116 165,87 279,87 121,0 243,0 364,0 68,0 105,-8 136,-47 69,-86 0,-166 -52,-255 -21,-37 -45,-77 -67,-115 -9,-17 -123,-219 -133,-228z"/>
  <path class="fil2" d="M443 49c18,17 28,14 45,45 8,1 18,0 26,-3 26,-8 1,-3 16,-9 -4,-9 -8,-19 -14,-28 -7,-11 -10,-11 -19,-19 -16,-16 -29,-24 -54,-29l0 43z"/>
  <path class="fil1" d="M401 413l27 16c13,7 19,13 32,6 17,-9 34,-27 53,-36l0 -23c-16,-6 -11,-10 -27,-3l-85 40z"/>
  <path class="fil1" d="M385 445l13 -27c-26,-9 -93,-50 -116,-50 4,14 10,15 21,22 9,7 17,12 27,19 19,11 38,23 55,36z"/>
  <polygon class="fil1" points="179,456 240,456 241,425 178,425 "/>
  <polygon class="fil1" points="570,456 632,456 632,425 569,425 "/>
  <polygon class="fil1" points="390,276 421,275 421,214 390,213 "/>
  <polygon class="fil1" points="390,667 421,666 421,604 390,604 "/>
  <path class="fil1" d="M411 460c4,4 -3,-2 6,5l19 12 17 -9 0 -21 -24 -12c-3,4 1,-3 -4,7 -6,13 -2,9 -14,18z"/>
  <path class="fil1" d="M357 469c21,3 37,9 53,0 -11,-11 -31,-19 -40,-30 -3,4 -1,1 -5,6l-8 24z"/>
  <path class="fil1" d="M504 630c1,0 2,2 2,2l18 -7c-5,-14 -14,-25 -21,-39l-18 7c3,21 17,35 18,35 0,1 1,3 1,2z"/>
  <path class="fil1" d="M212 342c10,6 28,16 39,20l9 -17c-8,-8 -27,-18 -39,-22l-9 19z"/>
  <path class="fil1" d="M485 285l17 10 22 -38 -18 -9c-6,6 -19,27 -21,37z"/>
  <path class="fil1" d="M213 541l9 17c13,-7 25,-15 38,-22l-9 -18c-12,4 -31,16 -38,23z"/>
  <path class="fil1" d="M288 256c5,14 13,26 22,38l17 -9 -20 -38 -19 9z"/>
  <path class="fil1" d="M552 343c3,11 2,10 10,18 12,-4 24,-11 35,-20l-9 -19 -36 21z"/>
  <path class="fil1" d="M306 632c10,-14 15,-22 21,-36l-17 -10c-7,7 -16,25 -22,37l18 9z"/>
  <path class="fil1" d="M551 538c14,7 25,15 39,20l0 -24 -31 -15 -8 19z"/>
  <path class="fil1" d="M391 435l5 18c20,2 24,-3 23,-22 -13,-6 -16,-7 -28,4z"/>
 </g>
</svg>
