<?xml version="1.0" encoding="UTF-8"?>
<!DOCTYPE svg PUBLIC "-//W3C//DTD SVG 1.1//EN" "http://www.w3.org/Graphics/SVG/1.1/DTD/svg11.dtd">
<!-- Creator: CorelDRAW X8 -->
<svg xmlns="http://www.w3.org/2000/svg" xml:space="preserve" width="106px" height="88px" version="1.1" style="shape-rendering:geometricPrecision; text-rendering:geometricPrecision; image-rendering:optimizeQuality; fill-rule:evenodd; clip-rule:evenodd"
viewBox="0 0 4288 3556"
 xmlns:xlink="http://www.w3.org/1999/xlink">
 <defs>
  <style type="text/css">
   <![CDATA[
    .fil1 {fill:none}
    .fil0 {fill:#2B2A29}
   ]]>
  </style>
 </defs>
 <g id="Слой_x0020_1">
  <metadata id="CorelCorpID_0Corel-Layer"/>
  <path class="fil0" d="M2094 922c-77,2 -151,21 -259,21 -483,0 -384,-48 -548,-62 2,90 58,155 106,204 40,40 40,40 91,65 35,17 65,37 113,41l0 21c-217,50 -692,94 -888,0 4,53 37,66 79,117 57,66 143,146 148,203 -199,0 -619,-34 -790,78 -35,23 -46,26 -47,77 384,0 800,357 1106,383l-434 -31c38,80 42,141 142,230 164,146 514,117 771,168 56,12 113,32 161,36 -2,1 -6,0 -7,3 -5,15 0,0 -14,6l-76 38c-37,18 -68,26 -109,36 -74,17 -177,22 -238,51 34,63 60,67 162,97 278,82 417,79 727,79l-11 9c-35,29 -62,47 -72,84 181,15 144,20 352,20 78,0 117,-20 186,-20 69,0 157,35 288,41l85 0c103,-5 227,-29 383,-91 182,-74 222,-138 329,-219 41,-31 152,-170 184,-219 78,-118 167,-355 167,-525l0 -11c0,-236 -2,-346 -113,-568 -49,-96 -88,-165 -163,-240 -63,-62 -47,-60 -140,-139 -292,-250 -779,-327 -1130,-165 -63,30 -371,-24 -446,-37l-281 -70c34,73 23,90 79,158 43,54 98,99 107,131zm861 -2c-498,76 -819,496 -754,981 60,443 458,822 980,750 444,-61 795,-457 742,-974 -45,-433 -466,-834 -968,-757zm58 302l0 558c0,45 19,41 60,54l266 96c181,65 311,146 291,-2 -57,-40 -400,-144 -508,-194 -10,-96 3,-492 -5,-521 -14,-47 -104,-53 -104,9z"/>
  <rect class="fil1" width="4288" height="3556"/>
 </g>
</svg>
