<?xml version="1.0" encoding="UTF-8"?>
<!DOCTYPE svg PUBLIC "-//W3C//DTD SVG 1.1//EN" "http://www.w3.org/Graphics/SVG/1.1/DTD/svg11.dtd">
<!-- Creator: CorelDRAW X8 -->
<svg xmlns="http://www.w3.org/2000/svg" xml:space="preserve" width="80px" height="88px" version="1.1" style="shape-rendering:geometricPrecision; text-rendering:geometricPrecision; image-rendering:optimizeQuality; fill-rule:evenodd; clip-rule:evenodd"
viewBox="0 0 2141 2358"
 xmlns:xlink="http://www.w3.org/1999/xlink">
 <defs>
  <style type="text/css">
   <![CDATA[
    .fil1 {fill:none}
    .fil0 {fill:#2B2A29}
   ]]>
  </style>
 </defs>
 <g id="Слой_x0020_1">
  <metadata id="CorelCorpID_0Corel-Layer"/>
  <g id="_2462754329648">
   <path class="fil0" d="M1433 1433c-3,-37 -27,-45 -42,-68 42,-28 81,-57 124,-85 59,-40 87,-67 165,-67 9,0 18,3 23,8 29,28 -25,49 -57,72 -24,16 -45,31 -70,47 -21,14 -130,90 -143,93zm589 -133l0 7c-1,38 -21,75 -49,104 -52,51 -402,278 -491,337l-137 88c-58,34 -131,89 -196,107 -42,12 -87,11 -132,1 -19,-5 -40,-11 -58,-18 -10,-5 -15,-8 -26,-12l-123 -63c-34,-17 -64,-33 -98,-50 -36,-18 -66,-35 -100,-52 -25,-13 -74,-42 -106,-42 -44,0 -149,99 -187,99 -20,0 -38,-20 -38,-42 0,-24 27,-37 44,-48 166,-111 171,-114 334,-33l292 152c12,5 23,10 35,15 51,21 62,20 112,20 53,0 159,-71 208,-104l558 -369c123,-81 86,-152 -9,-127 -64,16 -116,57 -170,92l-234 158c-62,41 -94,80 -181,80 -70,0 -294,5 -351,-6 -25,-5 -47,-8 -71,-13 -22,-4 -46,-10 -68,-16 -56,-14 -49,-55 -28,-72 27,-23 64,2 133,13 34,6 73,15 115,15l266 0c36,0 91,-11 93,-54 1,-44 -44,-52 -88,-58 -36,-5 -70,-3 -135,-13 -43,-7 -82,-17 -121,-27 -195,-51 -148,-122 -273,-172 -84,-34 -210,-29 -296,6 -63,25 -214,91 -276,122 -19,10 -57,34 -81,12 -6,-5 -13,-16 -13,-25 0,-35 19,-39 42,-50l153 -71c12,-5 16,-8 29,-13 42,-17 83,-36 126,-53 79,-31 118,-30 201,-30 110,0 218,51 271,117 30,38 44,47 89,63 83,31 57,26 155,-34 17,-11 31,-18 47,-29 31,-20 113,-72 145,-87 74,-33 181,-58 228,31 11,-3 12,-5 22,-8 21,-7 51,-15 73,-15 77,0 99,13 129,76 64,-31 158,-43 210,22 17,22 25,45 26,69zm-532 -106c0,10 -55,44 -66,51 -25,17 -46,32 -70,48 -39,27 -44,41 -78,35 -21,-3 -39,0 -60,-1l-40 -6c-13,-7 -1,-5 -1,-5 1,-3 130,-83 145,-91 12,-8 22,-15 35,-22 30,-18 135,-46 135,-9z"/>
   <path class="fil0" d="M1281 817c0,183 -198,245 -306,162 -25,-19 -53,-49 -65,-79 -71,-177 114,-323 254,-255 35,17 60,34 80,64 20,29 37,62 37,108zm11 -178c-13,-9 -69,-72 -125,-76 0,-110 84,-179 174,-167 37,5 55,18 81,38 67,51 77,171 -4,236 -18,14 -52,33 -84,33 -14,-26 -26,-41 -42,-64zm-205 -91c-59,5 -110,18 -155,50 -7,5 -12,9 -19,15 -35,31 -52,51 -74,97 -84,173 54,385 237,385 105,0 169,-34 227,-104 43,-53 62,-117 57,-189 -2,-32 -5,-17 27,-27l62 -28c27,-16 60,-53 76,-84 39,-72 41,-145 4,-219 -6,-14 -11,-23 -19,-34 -5,-6 -8,-8 -13,-14 -61,-76 -194,-105 -277,-57 -52,30 -86,62 -113,115 -11,22 -20,62 -20,94z"/>
   <path class="fil0" d="M1000 787l53 0 0 141 72 0 0 -213 -49 0c-12,0 -69,61 -76,72z"/>
   <path class="fil0" d="M1292 639l61 0 0 -179c-45,0 -41,-7 -65,18 -15,15 -30,27 -41,43l45 0 0 118z"/>
  </g>
  <rect class="fil1" width="2141" height="2358"/>
 </g>
</svg>
