<?xml version="1.0" encoding="UTF-8"?>
<!DOCTYPE svg PUBLIC "-//W3C//DTD SVG 1.1//EN" "http://www.w3.org/Graphics/SVG/1.1/DTD/svg11.dtd">
<!-- Creator: CorelDRAW X8 -->
<svg xmlns="http://www.w3.org/2000/svg" xml:space="preserve" width="61px" height="88px" version="1.1" style="shape-rendering:geometricPrecision; text-rendering:geometricPrecision; image-rendering:optimizeQuality; fill-rule:evenodd; clip-rule:evenodd"
viewBox="0 0 1307 1881"
 xmlns:xlink="http://www.w3.org/1999/xlink">
 <defs>
  <style type="text/css">
   <![CDATA[
    .fil3 {fill:none}
    .fil0 {fill:#2B2A29}
    .fil2 {fill:#FEFEFE;fill-rule:nonzero}
    .fil1 {fill:#2B2A29;fill-rule:nonzero}
   ]]>
  </style>
 </defs>
 <g id="Слой_x0020_1">
  <metadata id="CorelCorpID_0Corel-Layer"/>
  <path class="fil0" d="M1055 240l38 98 97 53 0 105 72 80 -38 99 38 98 -72 81 0 105 -97 52 -38 99 -110 18 -72 80 -109 -18 -97 52 -97 -52 -110 18 -71 -80 -110 -18 -39 -99 -96 -52 0 -105 -72 -81 38 -98 -38 -99 72 -80 0 -105 96 -53 39 -98 110 -19 71 -80 110 18 97 -52 97 52 109 -18 72 80 110 19zm-385 -28c272,0 493,208 493,465 0,256 -221,464 -493,464 -273,0 -494,-208 -494,-464 0,-257 221,-465 494,-465z"/>
  <polygon class="fil0" points="833,488 850,530 891,553 891,598 922,632 906,675 922,717 891,751 891,796 850,819 833,861 786,869 755,904 708,896 667,918 625,896 578,904 547,869 500,861 484,819 442,796 442,751 412,717 428,675 412,632 442,598 442,553 484,530 500,488 547,480 578,446 625,454 667,431 708,454 755,446 786,480 "/>
  <path class="fil0" d="M666 397c163,0 295,124 295,277 0,153 -132,277 -295,277 -163,0 -295,-124 -295,-277 0,-153 132,-277 295,-277zm0 -29c180,0 326,137 326,306 0,169 -146,306 -326,306 -180,0 -326,-137 -326,-306 0,-169 146,-306 326,-306z"/>
  <path class="fil1" d="M280 504l-13 12c-9,-12 -8,-25 2,-40 5,-9 12,-14 18,-16 6,-2 12,-1 17,3 3,3 5,6 7,10 1,4 1,9 0,15 5,-4 10,-6 14,-6 5,-1 9,1 13,4 6,5 9,11 10,19 0,8 -3,17 -9,26 -5,8 -11,14 -16,16 -5,3 -12,3 -20,0l5 -17c5,2 9,2 12,0 3,-1 5,-4 7,-7 4,-5 5,-9 5,-13 -1,-4 -2,-6 -5,-8 -2,-2 -6,-3 -9,-2 -3,1 -7,4 -10,9l-2 4 -10 -8 1 -2c3,-5 4,-9 4,-13 0,-4 -2,-7 -5,-10 -2,-2 -5,-2 -8,-2 -3,1 -6,3 -8,7 -5,6 -4,13 0,19z"/>
  <path id="1" class="fil1" d="M422 431l-14 14 -18 -10 -25 25 8 21 -13 13 -33 -92 13 -14 82 43zm-46 -3l-29 -17 13 34 16 -17z"/>
  <path id="2" class="fil1" d="M421 322l16 -9 15 36c3,-2 5,-4 6,-7 0,-2 0,-7 0,-16 -1,-10 0,-18 2,-22 2,-4 7,-7 14,-11 0,0 1,-1 2,-2l6 13 -3 1c-3,2 -5,3 -6,5 -1,2 -2,4 -2,6 0,2 0,6 1,13 0,3 0,6 0,9 0,2 -1,5 -3,8 4,-1 7,0 11,2 4,2 8,5 13,10l20 17 -18 10 -18 -17c0,0 -1,-1 -2,-1 0,0 -1,-1 -3,-3 -4,-3 -7,-5 -8,-5 -2,-1 -4,0 -7,1l16 37 -15 8 -37 -83z"/>
  <path id="3" class="fil1" d="M594 345l-17 6 -13 -17 -32 11 -1 23 -17 6 5 -99 17 -7 58 77zm-40 -24l-20 -29 -2 37 22 -8z"/>
  <path id="4" class="fil1" d="M584 256l17 -3 3 22c0,8 1,12 2,15 1,2 2,4 5,5 2,1 6,2 10,1 4,0 7,-1 10,-3 3,-1 5,-2 7,-4l-4 -40 16 -3 10 93 -17 2 -4 -37c-3,2 -6,4 -9,5 -3,2 -7,2 -10,3 -8,1 -15,0 -21,-4 -6,-3 -10,-10 -11,-21l-4 -31z"/>
  <polygon id="5" class="fil1" points="678,339 689,247 751,255 749,271 704,265 702,285 743,291 742,306 700,301 697,326 743,332 741,348 "/>
  <path id="6" class="fil1" d="M817 337l14 12c-6,9 -12,14 -19,17 -7,2 -15,2 -24,-1 -10,-5 -17,-12 -22,-22 -4,-11 -4,-23 1,-37 5,-15 12,-25 21,-30 10,-6 20,-6 31,-2 10,4 16,10 20,19 3,5 4,11 3,19l-17 -2c1,-5 0,-9 -2,-13 -2,-4 -6,-6 -10,-8 -6,-2 -11,-2 -16,1 -6,4 -10,11 -13,21 -4,11 -5,20 -2,26 2,6 5,10 11,12 4,2 9,2 13,0 4,-2 7,-6 11,-12z"/>
  <polygon id="7" class="fil1" points="849,390 882,322 860,309 867,295 926,330 919,343 897,331 864,399 "/>
  <path id="8" class="fil1" d="M948 346l26 23c5,5 9,9 11,11 2,3 4,6 5,9 0,4 1,7 0,11 0,4 -2,7 -4,10 -2,4 -6,6 -9,7 -4,2 -8,2 -12,1 3,5 5,9 5,15 0,5 -2,9 -5,13 -2,4 -5,6 -9,8 -4,2 -7,3 -11,3 -4,-1 -8,-2 -12,-5 -2,-1 -7,-6 -16,-13l-22 -20 53 -73zm4 24l-12 17 9 7c5,5 8,8 9,9 3,1 5,2 8,2 2,0 4,-2 6,-4 1,-2 2,-5 2,-7 0,-3 -1,-5 -3,-7 -1,-1 -5,-5 -11,-10l-8 -7zm-21 29l-14 19 12 11c5,4 8,7 10,8 2,1 4,2 6,1 3,0 5,-2 7,-4 1,-3 2,-5 2,-7 1,-3 0,-5 -1,-7 -2,-3 -5,-6 -11,-12l-11 -9z"/>
  <path id="9" class="fil1" d="M989 447c7,-6 14,-10 20,-11 5,-1 9,-2 14,-1 5,1 9,2 12,5 5,3 10,7 14,13 7,11 10,23 8,34 -2,12 -8,22 -19,32 -11,8 -22,12 -32,11 -11,-2 -20,-8 -27,-19 -8,-11 -10,-22 -9,-34 2,-11 8,-22 19,-30zm11 15c-8,6 -12,13 -14,20 -1,7 0,14 4,20 4,6 10,9 16,9 7,1 14,-2 22,-8 8,-7 12,-13 13,-20 2,-7 0,-14 -4,-20 -4,-6 -9,-9 -16,-10 -6,-1 -13,2 -21,9z"/>
  <path class="fil1" d="M349 913c7,-7 14,-12 20,-14 6,-2 11,-3 16,-3 6,0 11,1 15,3 6,3 12,7 18,13 10,10 15,21 15,34 0,12 -6,24 -17,35 -11,11 -23,16 -35,16 -12,0 -23,-5 -34,-15 -10,-11 -15,-22 -15,-34 0,-13 6,-24 17,-35zm15 14c-8,8 -12,15 -13,23 0,8 3,14 8,20 6,6 12,9 20,8 8,0 15,-4 23,-12 8,-8 12,-15 12,-23 1,-7 -2,-14 -8,-20 -5,-5 -12,-8 -19,-8 -8,0 -16,4 -23,12zm63 119l42 -68 -25 -16 9 -14 66 42 -9 14 -24 -15 -42 68 -17 -11zm99 -53l37 12c8,3 13,5 17,7 3,2 6,4 8,7 2,3 4,6 5,10 1,4 1,8 -1,12 -1,4 -3,8 -7,10 -3,3 -7,5 -12,5 5,4 9,8 11,13 1,5 1,10 0,16 -1,4 -4,8 -7,11 -3,3 -7,6 -11,7 -4,1 -9,1 -14,0 -3,-1 -11,-3 -23,-7l-31 -11 28 -92zm14 21l-6 22 12 4c7,2 12,4 14,4 3,1 6,1 8,-1 3,-1 4,-3 5,-6 1,-3 1,-5 0,-8 -1,-2 -3,-4 -6,-5 -2,-1 -7,-3 -16,-6l-11 -4zm-11 37l-8 25 18 6c6,2 11,3 13,4 3,0 5,0 8,-2 2,-1 4,-3 5,-7 1,-3 1,-5 0,-8 -1,-2 -2,-4 -5,-6 -2,-2 -7,-4 -16,-7l-15 -5zm79 67l5 -97 72 5 -1 17 -52 -4 -1 22 48 3 0 17 -49 -4 -1 26 54 4 -1 17 -74 -6zm92 -93l20 -2 3 23c1,7 2,12 3,14 1,3 3,5 6,6 3,2 7,2 12,1 4,0 8,-1 11,-2 3,-2 6,-3 8,-5l-6 -42 19 -3 15 97 -20 3 -6 -39c-3,2 -7,4 -11,5 -3,2 -7,2 -11,3 -9,1 -17,0 -25,-4 -7,-4 -11,-11 -13,-22l-5 -33zm207 44l-20 8 -16 -18 -36 15 1 23 -19 8 -4 -105 20 -7 74 76zm-49 -23l-26 -28 2 38 24 -10zm72 5l-59 -79 58 -42 9 13 -41 31 13 18 39 -29 9 14 -38 28 16 22 43 -32 10 13 -59 43zm83 -66l-78 -60 17 -23 64 27 -43 -55 17 -23 79 60 -11 14 -62 -47 50 63 -11 15 -73 -33 62 48 -11 14z"/>
  <path class="fil2" d="M524 765l-22 0 0 -125c-7,11 -17,19 -27,25l0 -30c5,-3 11,-9 18,-17 6,-7 11,-17 13,-27l18 0 0 174z"/>
  <path id="1" class="fil2" d="M592 591c11,0 19,6 25,18 7,14 11,38 11,70 0,33 -4,57 -11,71 -6,12 -14,18 -25,18 -11,0 -20,-6 -26,-19 -7,-13 -10,-37 -10,-70 0,-33 3,-56 11,-70 6,-12 14,-18 25,-18zm0 27c-3,0 -5,2 -7,4 -2,3 -4,7 -5,14 -1,9 -2,23 -2,43 0,21 1,35 2,42 1,8 3,13 5,16 2,2 4,3 7,3 2,0 5,-1 7,-3 2,-3 3,-8 4,-14 2,-9 2,-23 2,-44 0,-20 0,-34 -1,-42 -2,-7 -3,-12 -5,-15 -2,-2 -5,-4 -7,-4z"/>
  <path id="2" class="fil2" d="M678 591c11,0 20,6 26,18 7,14 11,38 11,70 0,33 -4,57 -11,71 -6,12 -15,18 -26,18 -10,0 -19,-6 -26,-19 -6,-13 -10,-37 -10,-70 0,-33 4,-56 11,-70 6,-12 15,-18 25,-18zm0 27c-2,0 -4,2 -6,4 -2,3 -4,7 -5,14 -1,9 -2,23 -2,43 0,21 0,35 2,42 1,8 3,13 5,16 2,2 4,3 6,3 3,0 5,-1 7,-3 2,-3 4,-8 5,-14 1,-9 2,-23 2,-44 0,-20 -1,-34 -2,-42 -1,-7 -3,-12 -5,-15 -2,-2 -4,-4 -7,-4z"/>
  <path id="3" class="fil2" d="M729 634c0,-15 2,-27 7,-34 4,-8 10,-11 17,-11 8,0 14,3 19,11 4,7 6,19 6,34 0,16 -2,27 -6,35 -5,7 -11,11 -18,11 -8,0 -14,-4 -18,-11 -5,-8 -7,-19 -7,-35zm17 0c0,11 1,19 2,23 1,2 3,4 6,4 2,0 4,-2 5,-4 1,-4 2,-12 2,-23 0,-11 -1,-18 -2,-22 -1,-3 -3,-5 -5,-5 -3,0 -5,2 -6,5 -1,4 -2,11 -2,22zm24 138l-16 0 59 -183 16 0 -59 183zm34 -46c0,-16 2,-27 7,-35 4,-7 10,-11 18,-11 8,0 14,4 18,11 4,8 7,19 7,35 0,16 -3,27 -7,35 -4,7 -10,11 -18,11 -8,0 -14,-4 -18,-11 -5,-8 -7,-19 -7,-35zm17 0c0,11 1,19 2,23 2,3 4,4 6,4 2,0 4,-1 5,-4 2,-4 3,-12 3,-23 0,-11 -1,-19 -3,-23 -1,-2 -3,-4 -5,-4 -3,0 -4,2 -6,4 -1,4 -2,12 -2,23z"/>
  <path class="fil0" d="M987 1211l14 -4 139 518 -203 -74 -138 165 -129 -479 110 -60 128 21 79 -87zm-339 117l-128 479 -139 -165 -202 74 138 -516 24 4 84 94 129 -21 94 51z"/>
  <rect class="fil3" width="1307" height="1881"/>
 </g>
</svg>
